<svg xmlns="http://www.w3.org/2000/svg" width="170" height="170" viewBox="0 0 170 170"><g transform="translate(85,85) scale(1.5)"><circle cx="0" cy="0" r="52" fill="#fbf8f2" stroke="#c19e4a" stroke-width="1.6"/><circle cx="0" cy="0" r="46" fill="none" stroke="#c19e4a" stroke-width="0.7"/><circle cx="30" cy="-26" r="7" fill="#c19e4a" opacity="0.9"/><g transform="translate(-24,6) scale(1.0)"><path d="M1 -18 L10 3 Q11 4 4 4 L13 19 Q12 21 -1 20 L-12 21 Q-13 19 -4 4 Q-12 5 -11 3 Z" fill="none" stroke="#7d8a5e" stroke-width="2.1" stroke-linejoin="round"/></g><g transform="translate(24,6) scale(0.85)"><path d="M1 -18 L10 3 Q11 4 4 4 L13 19 Q12 21 -1 20 L-12 21 Q-13 19 -4 4 Q-12 5 -11 3 Z" fill="none" stroke="#9aa97a" stroke-width="2.1" stroke-linejoin="round"/></g><path d="M-31.35 -23 Q-26.25 -30.8 -22 -24.85 Q-17.75 -30.8 -12.65 -23" fill="none" stroke="#6a5440" stroke-width="2.3" stroke-linecap="round"/><path d="M-8.45 -29 Q-2.75 -37.6 2 -30.95 Q6.75 -37.6 12.45 -29" fill="none" stroke="#6a5440" stroke-width="2.3" stroke-linecap="round"/><path d="M15.2 -22 Q20.0 -29.4 24 -23.8 Q28.0 -29.4 32.8 -22" fill="none" stroke="#6a5440" stroke-width="2.3" stroke-linecap="round"/></g></svg>